<?xml version="1.0" standalone="no"?>
<!DOCTYPE svg PUBLIC "-//W3C//DTD SVG 20010904//EN"
 "http://www.w3.org/TR/2001/REC-SVG-20010904/DTD/svg10.dtd">
<svg version="1.0" xmlns="http://www.w3.org/2000/svg"
 width="500.000000pt" height="500.000000pt" viewBox="0 0 500.000000 500.000000"
 preserveAspectRatio="xMidYMid meet">
<metadata>
Created by potrace 1.14, written by Peter Selinger 2001-2017
</metadata>
<g transform="translate(0.000000,500.000000) scale(0.100000,-0.100000)"
fill="#000000" stroke="none">
<path d="M771 4909 c-184 -36 -382 -155 -500 -301 -59 -73 -129 -202 -162
-303 l-24 -70 -3 -1702 c-3 -1866 -6 -1760 57 -1918 92 -229 291 -416 526
-494 50 -17 131 -35 180 -41 123 -14 3187 -14 3310 0 197 23 372 108 515 250
142 143 227 318 250 515 14 123 14 3187 0 3310 -36 314 -245 590 -535 706
-155 62 -53 59 -1890 58 -924 -1 -1700 -5 -1724 -10z m1951 -459 c2 -6 41 -17
88 -25 140 -23 305 -69 395 -110 47 -22 178 -86 200 -99 244 -137 484 -359
628 -578 46 -70 117 -187 117 -193 0 -3 14 -33 30 -67 17 -34 30 -66 30 -71 0
-5 6 -23 14 -40 31 -72 46 -124 97 -352 18 -79 19 -482 2 -540 -7 -22 -22 -74
-33 -115 -42 -147 -94 -262 -198 -435 -34 -56 -158 -234 -171 -245 -3 -3 -24
-27 -46 -55 -261 -328 -757 -733 -1086 -888 -119 -55 -142 -64 -181 -71 -21
-4 -38 -11 -38 -16 0 -6 -29 -10 -65 -10 -36 0 -65 4 -65 10 0 5 -17 12 -37
15 -217 37 -698 357 -1039 691 -173 171 -288 310 -420 509 -81 122 -192 348
-220 450 -52 185 -55 203 -61 360 -7 222 27 469 83 603 8 18 14 40 14 50 0 9
7 26 15 36 8 11 15 25 15 32 0 7 18 50 40 96 139 290 303 493 551 683 53 41
100 75 103 75 3 0 24 12 48 28 67 42 80 49 136 77 103 50 159 75 166 75 5 0
22 6 39 14 58 27 193 61 317 82 47 7 86 18 88 24 5 14 439 14 444 0z"/>
<path d="M1177 3204 c-71 -22 -129 -84 -150 -160 -21 -74 -21 -103 -2 -196 50
-238 204 -475 455 -701 74 -66 232 -176 300 -209 141 -67 185 -79 307 -85 107
-5 115 -4 167 21 62 30 110 88 127 151 30 110 -11 301 -100 464 -128 232 -371
483 -581 599 -73 41 -162 82 -220 102 -86 29 -235 36 -303 14z"/>
<path d="M3580 3206 c-316 -71 -710 -412 -880 -761 -64 -132 -84 -206 -85
-320 0 -84 3 -106 22 -141 28 -52 90 -108 138 -124 55 -18 234 -7 308 19 396
139 807 578 891 950 32 145 14 244 -59 316 -70 71 -193 93 -335 61z"/>
<path d="M2105 1379 c-31 -27 -35 -37 -35 -78 1 -29 7 -54 18 -66 96 -114 330
-177 531 -142 107 18 218 67 276 121 31 29 35 39 35 82 0 39 -5 55 -25 76 -46
50 -91 49 -172 -3 -66 -41 -144 -62 -233 -62 -91 -1 -168 21 -240 68 -69 45
-107 46 -155 4z"/>
</g>
</svg>
